<svg width="41" height="31" viewBox="0 0 41 31" fill="none" xmlns="http://www.w3.org/2000/svg">
<path d="M0.393951 0C1.16558 0.188045 2.30949 0.245131 2.36702 0.520482C2.58024 1.57488 2.5667 2.72329 2.34672 3.77769C2.29257 4.03625 1.13851 4.06983 0.397336 4.22765V0H0.393951Z" fill="#DDDDDD"/>
<path d="M31.2006 0.0671997C33.6712 0.174654 36.0605 0.100783 38.389 0.443293C40.0473 0.688423 40.8798 2.19614 40.9847 3.77437C41.1506 6.22567 39.9424 7.3405 38.4397 7.89121C37.7256 8.15313 36.8998 8.18671 36.1215 8.19678C33.2786 8.23372 33.2786 8.21357 33.2752 10.9805C33.2752 11.3197 33.2752 11.6588 33.2752 11.9543C33.1568 12.0383 33.106 12.1054 33.0485 12.1121C31.8143 12.1995 31.1972 11.6432 31.1972 10.4432C31.1972 9.34184 31.2615 8.23707 31.1803 7.14574C31.1059 6.14508 31.5763 5.91674 32.4494 5.93689C33.9386 5.97047 35.4277 5.94696 36.9202 5.94696C38.0471 5.94696 38.8628 5.23507 38.8898 4.22433C38.9203 3.09607 38.0878 2.2465 36.9032 2.23307C35.448 2.21964 33.9927 2.23307 32.5374 2.22972C31.6349 2.22972 31.1882 1.7708 31.1972 0.852962C31.1972 0.681707 31.1972 0.510451 31.1972 0.0705609L31.2006 0.0671997Z" fill="#DDDDDD"/>
<path d="M28.2961 30.6782C28.6165 29.4357 29.3893 28.8145 30.6144 28.8145C32.5198 28.8145 34.4218 28.8145 36.3272 28.8145C36.7367 28.8145 37.2206 28.8716 37.0514 28.1967C37.0345 28.1329 36.9804 28.0791 36.9533 28.0187C36.1241 26.0912 35.2983 24.1604 34.3541 21.9576C33.9581 22.787 33.6603 23.3579 33.4133 23.9455C33.0342 24.8421 32.6416 25.7387 32.3438 26.6621C32.1069 27.4008 31.7042 27.7064 30.9258 27.5822C30.5569 27.5217 30.1711 27.5721 29.5382 27.5721C29.9003 26.6386 30.188 25.8192 30.5298 25.0201C31.3353 23.1497 32.2051 21.3028 32.9767 19.4156C33.3151 18.5862 33.9581 18.9388 34.4658 18.9355C34.8719 18.9355 35.5251 19.0966 35.6469 19.372C37.2917 23.0792 38.862 26.8165 40.4493 30.5439C39.8503 30.93 29.6262 31.0576 28.2928 30.6815L28.2961 30.6782Z" fill="#DDDDDD"/>
<path d="M14.5959 12.1491C14.447 10.5809 14.8734 10.0772 16.2475 10.0772C18.559 10.0772 20.8739 10.0772 23.3986 10.0772C22.4137 7.74679 21.4966 5.5742 20.5794 3.40161C20.4914 3.4184 20.4034 3.43184 20.3154 3.44863C19.7841 4.71793 19.2595 5.98723 18.7147 7.25318C18.0006 8.92207 17.9938 8.91871 15.8346 8.76089C16.1189 7.88111 16.3321 7.03491 16.6604 6.23236C17.3677 4.4963 18.1427 2.78375 18.8703 1.05441C19.0734 0.570866 19.2088 0.0604569 19.9059 0.171269C20.62 0.285439 21.5 -0.214893 21.9399 0.849575C23.2057 3.92209 24.5188 6.97782 25.815 10.0369C25.8421 10.1007 25.8962 10.1511 25.9199 10.2115C26.387 11.501 25.894 12.1457 24.441 12.1457H14.5959V12.1491Z" fill="#DDDDDD"/>
<path d="M6.45012 18.9623C8.14229 18.4922 10.9378 20.6446 11.4319 22.3807C11.4759 22.5352 11.459 22.7904 11.3608 22.8911C10.9987 23.2571 9.42834 22.9751 9.05268 22.5755C8.61949 22.1121 8.17614 21.4841 7.62111 21.333C6.24707 20.9603 6.25722 20.0805 6.45012 18.9657V18.9623Z" fill="#DDDDDD"/>
<path d="M22.8067 25.9166H17.3985C17.3985 27.2128 17.4053 28.4384 17.3985 29.6607C17.3918 30.752 16.4306 31.3296 15.4525 30.8024C15.2698 30.705 15.1344 30.3625 15.131 30.1308C15.104 28.3108 15.131 26.4908 15.1073 24.6708C15.0972 24.0194 15.3916 23.8481 15.9907 23.8548C17.8927 23.875 19.798 23.8615 21.7034 23.8615C22.0385 23.8615 22.3769 23.8615 22.8135 23.8615C22.8135 22.6023 22.8135 21.4438 22.8135 20.2853C22.8135 19.3563 23.2941 18.8963 24.2552 18.9052C24.4921 18.9052 24.729 18.9052 25.0302 18.9052V30.7487C24.949 30.7923 24.8949 30.8461 24.8339 30.8461C22.3904 30.9065 22.8507 30.9837 22.8169 28.9354C22.7999 27.9784 22.8169 27.0214 22.8169 25.9166H22.8067Z" fill="#DDDDDD"/>
<path d="M5.04575 30.8158C3.19113 30.9535 1.31959 29.7111 0.57842 27.7232C-0.369195 25.1879 -0.227051 22.693 1.56326 20.5607C2.17921 19.8253 3.21144 19.4022 4.11167 18.9522C4.32827 18.8448 5.07282 19.2074 5.06944 19.3417C5.05252 19.9562 5.57032 20.873 4.67347 21.1416C1.92877 21.9576 1.65464 25.6748 2.91023 27.5049C3.13698 27.8373 3.45511 28.2571 3.79693 28.3309C5.25558 28.6466 5.30296 29.6002 5.04575 30.8192V30.8158Z" fill="#DDDDDD"/>
<path d="M15.1175 18.9556C16.6382 18.8593 17.3986 19.5186 17.3986 20.9334C17.3986 21.1047 17.3986 21.2759 17.3986 21.4472C17.3986 22.8542 17.1921 23.0456 15.7538 22.7971C15.5135 22.7568 15.1581 22.4109 15.1446 22.1893C15.0803 21.1349 15.1175 20.0771 15.1175 18.9556Z" fill="#DDDDDD"/>
<path d="M5.91375 4.63061C7.50778 7.19943 9.50792 9.36531 10.9226 12.0181C8.55354 12.3539 8.15419 12.1054 6.9629 10.1141C6.25896 8.93549 5.4501 7.81729 4.62432 6.71589C4.4991 6.54799 3.92038 6.48419 3.74439 6.62187C3.00999 7.19272 2.37373 7.8408 2.5971 8.94221C2.70878 9.50298 2.6174 10.1041 2.6174 10.6883C2.6174 12.0449 2.49557 12.1625 1.13168 12.1423C0.89816 12.139 0.661256 12.1188 0.336359 12.0987C0.336359 10.376 0.32959 8.70379 0.346512 7.03154C0.346512 6.87035 0.475117 6.67559 0.600338 6.55471C2.46511 4.78171 4.40095 3.07588 6.1845 1.22901C7.29456 0.0805935 8.52308 0.0369419 10.1374 0.517128C8.73629 1.88045 7.33856 3.24378 5.91375 4.63061Z" fill="#DDDDDD"/>
<path d="M6.39263 29.9125C6.30464 29.2342 6.44002 28.8984 7.26579 28.7473C7.86482 28.6399 8.42324 27.9985 8.86997 27.4847C9.4047 26.8736 10.4369 26.4606 11.1849 26.7964C11.3304 26.8635 11.4759 27.2363 11.4184 27.3941C10.6603 29.4021 9.2084 30.6546 7.07288 30.9972C6.82244 31.0374 6.46371 30.4229 6.15573 30.1107C6.23357 30.0435 6.31141 29.9797 6.38925 29.9125H6.39263Z" fill="#DDDDDD"/>
</svg>
