<svg width="20" height="20" viewBox="0 0 20 20" fill="none" xmlns="http://www.w3.org/2000/svg">
<path fill-rule="evenodd" clip-rule="evenodd" d="M1.1606 9.30182C0.946325 9.74279 0.946345 10.2578 1.16065 10.6988C2.67982 13.8245 6.06523 16 9.99772 16C13.9305 16 17.316 13.8243 18.8351 10.6982C19.0493 10.2572 19.0493 9.74221 18.835 9.30125C17.3158 6.17546 13.9304 4 9.99795 4C6.06521 4 2.67963 6.17572 1.1606 9.30182ZM9.99784 13C11.6803 13 13.0442 11.6569 13.0442 10C13.0442 8.34315 11.6803 7 9.99784 7C8.31535 7 6.95143 8.34315 6.95143 10C6.95143 11.6569 8.31535 13 9.99784 13Z" fill="#DDDDDD"/>
</svg>
