<svg width="18" height="40" viewBox="0 0 18 40" fill="none" xmlns="http://www.w3.org/2000/svg">
<path d="M-1.375 3.07722e-08H1.125C2.26823 -0.000135702 3.36578 0.448759 4.18125 1.25H4.25C5.30863 1.25165 6.34531 1.552 7.24085 2.11652C8.1364 2.68105 8.85447 3.48684 9.3125 4.44125C10.1722 4.60231 10.9486 5.05852 11.5078 5.73109C12.0669 6.40366 12.3736 7.25036 12.375 8.125V10C12.3741 10.711 12.1711 11.407 11.7896 12.007C11.4082 12.607 10.864 13.0862 10.2206 13.3888C10.9374 13.6757 11.5363 14.1962 11.9204 14.8659C12.3045 15.5357 12.4512 16.3155 12.3369 17.079C12.2225 17.8426 11.8538 18.5451 11.2904 19.073C10.727 19.6009 10.0019 19.9231 9.2325 19.9875C9.10486 22.1319 8.33124 24.1876 7.01335 25.8841C5.69546 27.5806 3.89502 28.8385 1.84875 29.4925C2.01461 30.1706 2.40272 30.7736 2.9512 31.2054C3.49968 31.6372 4.17694 31.8729 4.875 31.875H9.875C14.5831 31.875 18 35.0294 18 39.375C18 39.5408 17.9342 39.6997 17.8169 39.8169C17.6997 39.9342 17.5408 40 17.375 40H-1.375C-1.54076 40 -1.69973 39.9342 -1.81694 39.8169C-1.93415 39.6997 -2 39.5408 -2 39.375V0.625C-2 0.45924 -1.93415 0.300269 -1.81694 0.183058C-1.69973 0.0658481 -1.54076 3.07722e-08 -1.375 3.07722e-08ZM11.125 10V8.125C11.1233 7.67154 10.998 7.22712 10.7626 6.83957C10.5271 6.45203 10.1904 6.13604 9.78875 5.92562C9.84416 6.23909 9.87301 6.55668 9.875 6.875H8.625C8.62367 5.86498 8.27346 4.88643 7.63363 4.10492C6.9938 3.32341 6.10363 2.78693 5.11375 2.58625C5.36806 3.14831 5.49973 3.75809 5.5 4.375H4.25C4.24901 3.5465 3.91945 2.75222 3.33361 2.16639C2.74778 1.58055 1.9535 1.25099 1.125 1.25H-0.75V8.125H3.625C4.89014 8.12724 6.11767 8.5554 7.10977 9.34046C8.10187 10.1255 8.80074 11.2218 9.09375 12.4525C9.66461 12.3435 10.1797 12.0391 10.5504 11.5915C10.9211 11.1439 11.1243 10.5812 11.125 10ZM8 19.375C8 19.2092 8.06585 19.0503 8.18306 18.9331C8.30027 18.8158 8.45924 18.75 8.625 18.75H8.9375C9.51766 18.75 10.0741 18.5195 10.4843 18.1093C10.8945 17.6991 11.125 17.1427 11.125 16.5625C11.125 15.9823 10.8945 15.4259 10.4843 15.0157C10.0741 14.6055 9.51766 14.375 8.9375 14.375H8.625C8.45924 14.375 8.30027 14.3092 8.18306 14.1919C8.06585 14.0747 8 13.9158 8 13.75C7.99868 12.5901 7.53732 11.4781 6.71713 10.6579C5.89695 9.83768 4.78492 9.37632 3.625 9.375H-0.75V23.125H3C3.16576 23.125 3.32473 23.1908 3.44194 23.3081C3.55915 23.4253 3.625 23.5842 3.625 23.75C3.62401 24.5785 3.29445 25.3728 2.70861 25.9586C2.12278 26.5444 1.3285 26.874 0.5 26.875H-0.75V28.7294C1.62185 28.5678 3.84406 27.5124 5.46808 25.7762C7.09209 24.04 7.99695 21.7523 8 19.375ZM-0.75 25.625H0.5C0.887671 25.6245 1.26571 25.5041 1.58226 25.2803C1.89881 25.0566 2.13839 24.7403 2.26813 24.375H-0.75V25.625ZM16.7206 38.75C16.4081 35.455 13.625 33.125 9.875 33.125H4.875C3.89955 33.1233 2.95261 32.7959 2.18439 32.1948C1.41616 31.5937 0.870647 30.7533 0.634375 29.8069C0.176975 29.8913 -0.28548 29.9456 -0.75 29.9694V38.75H16.7206ZM-21.375 31.875H-8.25V30H-9.5C-9.66576 30 -9.82473 29.9342 -9.94194 29.8169C-10.0592 29.6997 -10.125 29.5408 -10.125 29.375V24.375H-14.5C-14.6658 24.375 -14.8247 24.3092 -14.9419 24.1919C-15.0592 24.0747 -15.125 23.9158 -15.125 23.75V8.75C-15.1225 6.43012 -14.1999 4.20596 -12.5594 2.56556C-10.919 0.925151 -8.69488 0.00248163 -6.375 3.07722e-08H-3.25V1.25H-6.375C-8.25524 1.25234 -10.0662 1.9599 -11.45 3.23284C-12.8338 4.50578 -13.6898 6.2515 -13.8488 8.125H-3.25V12.5C-3.25 12.6658 -3.31585 12.8247 -3.43306 12.9419C-3.55027 13.0592 -3.70924 13.125 -3.875 13.125H-6.375V11.875H-4.5V9.375H-8.25V12.5H-9.5V9.375H-13.875V15.625H-12.625V16.875H-13.875V23.125H-9.5C-9.33424 23.125 -9.17527 23.1908 -9.05806 23.3081C-8.94085 23.4253 -8.875 23.5842 -8.875 23.75V28.75H-3.25V30H-7V31.875H-3.25V33.125H-20.75V38.75H-3.25V40H-21.375C-21.5408 40 -21.6997 39.9342 -21.8169 39.8169C-21.9342 39.6997 -22 39.5408 -22 39.375V32.5C-22 32.3342 -21.9342 32.1753 -21.8169 32.0581C-21.6997 31.9408 -21.5408 31.875 -21.375 31.875Z" fill="#138811"/>
<path d="M3 17.5C2.30964 17.5 1.75 16.9404 1.75 16.25C1.75 15.5596 2.30964 15 3 15C3.69036 15 4.25 15.5596 4.25 16.25C4.25 16.9404 3.69036 17.5 3 17.5Z" fill="#138811"/>
</svg>
