<svg width="24" height="24" viewBox="0 0 24 24" fill="none" xmlns="http://www.w3.org/2000/svg">
<path fill-rule="evenodd" clip-rule="evenodd" d="M6.59998 7.4V10.1H4.79998C3.80587 10.1 2.99998 10.9059 2.99998 11.9V20C2.99998 20.9941 3.80587 21.8 4.79998 21.8H19.2C20.1941 21.8 21 20.9941 21 20V11.9C21 10.9059 20.1941 10.1 19.2 10.1H17.4V7.4C17.4 4.41766 14.9823 2 12 2C9.01767 2 6.59998 4.41766 6.59998 7.4ZM12 3.8C10.0118 3.8 8.39998 5.41178 8.39998 7.4V10.1H15.6V7.4C15.6 5.41178 13.9882 3.8 12 3.8ZM12.9 14.6C12.9 14.1029 12.497 13.7 12 13.7C11.5029 13.7 11.1 14.1029 11.1 14.6V17.3C11.1 17.7971 11.5029 18.2 12 18.2C12.497 18.2 12.9 17.7971 12.9 17.3V14.6Z" fill="#DDDDDD"/>
</svg>
