<svg width="18" height="40" viewBox="0 0 18 40" fill="none" xmlns="http://www.w3.org/2000/svg">
<path d="M-2.625 3.07722e-08H-5.125C-6.26823 -0.000135702 -7.36578 0.448759 -8.18125 1.25H-8.25C-9.30863 1.25165 -10.3453 1.552 -11.2409 2.11652C-12.1364 2.68105 -12.8545 3.48684 -13.3125 4.44125C-14.1722 4.60231 -14.9486 5.05852 -15.5078 5.73109C-16.0669 6.40366 -16.3736 7.25036 -16.375 8.125V10C-16.3741 10.711 -16.1711 11.407 -15.7896 12.007C-15.4082 12.607 -14.864 13.0862 -14.2206 13.3888C-14.9374 13.6757 -15.5363 14.1962 -15.9204 14.8659C-16.3045 15.5357 -16.4512 16.3155 -16.3369 17.079C-16.2225 17.8426 -15.8538 18.5451 -15.2904 19.073C-14.727 19.6009 -14.0019 19.9231 -13.2325 19.9875C-13.1049 22.1319 -12.3312 24.1876 -11.0133 25.8841C-9.69546 27.5806 -7.89502 28.8385 -5.84875 29.4925C-6.01461 30.1706 -6.40272 30.7736 -6.9512 31.2054C-7.49968 31.6372 -8.17694 31.8729 -8.875 31.875H-13.875C-18.5831 31.875 -22 35.0294 -22 39.375C-22 39.5408 -21.9342 39.6997 -21.8169 39.8169C-21.6997 39.9342 -21.5408 40 -21.375 40H-2.625C-2.45924 40 -2.30027 39.9342 -2.18306 39.8169C-2.06585 39.6997 -2 39.5408 -2 39.375V0.625C-2 0.45924 -2.06585 0.300269 -2.18306 0.183058C-2.30027 0.0658481 -2.45924 3.07722e-08 -2.625 3.07722e-08ZM-15.125 10V8.125C-15.1233 7.67154 -14.998 7.22712 -14.7626 6.83957C-14.5271 6.45203 -14.1904 6.13604 -13.7888 5.92562C-13.8442 6.23909 -13.873 6.55668 -13.875 6.875H-12.625C-12.6237 5.86498 -12.2735 4.88643 -11.6336 4.10492C-10.9938 3.32341 -10.1036 2.78693 -9.11375 2.58625C-9.36806 3.14831 -9.49973 3.75809 -9.5 4.375H-8.25C-8.24901 3.5465 -7.91945 2.75222 -7.33361 2.16639C-6.74778 1.58055 -5.9535 1.25099 -5.125 1.25H-3.25V8.125H-7.625C-8.89014 8.12724 -10.1177 8.5554 -11.1098 9.34046C-12.1019 10.1255 -12.8007 11.2218 -13.0938 12.4525C-13.6646 12.3435 -14.1797 12.0391 -14.5504 11.5915C-14.9211 11.1439 -15.1243 10.5812 -15.125 10ZM-12 19.375C-12 19.2092 -12.0658 19.0503 -12.1831 18.9331C-12.3003 18.8158 -12.4592 18.75 -12.625 18.75H-12.9375C-13.5177 18.75 -14.0741 18.5195 -14.4843 18.1093C-14.8945 17.6991 -15.125 17.1427 -15.125 16.5625C-15.125 15.9823 -14.8945 15.4259 -14.4843 15.0157C-14.0741 14.6055 -13.5177 14.375 -12.9375 14.375H-12.625C-12.4592 14.375 -12.3003 14.3092 -12.1831 14.1919C-12.0658 14.0747 -12 13.9158 -12 13.75C-11.9987 12.5901 -11.5373 11.4781 -10.7171 10.6579C-9.89695 9.83768 -8.78492 9.37632 -7.625 9.375H-3.25V23.125H-7C-7.16576 23.125 -7.32473 23.1908 -7.44194 23.3081C-7.55915 23.4253 -7.625 23.5842 -7.625 23.75C-7.62401 24.5785 -7.29445 25.3728 -6.70861 25.9586C-6.12278 26.5444 -5.3285 26.874 -4.5 26.875H-3.25V28.7294C-5.62185 28.5678 -7.84406 27.5124 -9.46808 25.7762C-11.0921 24.04 -11.997 21.7523 -12 19.375ZM-3.25 25.625H-4.5C-4.88767 25.6245 -5.26571 25.5041 -5.58226 25.2803C-5.89881 25.0566 -6.13839 24.7403 -6.26813 24.375H-3.25V25.625ZM-20.7206 38.75C-20.4081 35.455 -17.625 33.125 -13.875 33.125H-8.875C-7.89955 33.1233 -6.95261 32.7959 -6.18439 32.1948C-5.41616 31.5937 -4.87065 30.7533 -4.63437 29.8069C-4.17698 29.8913 -3.71452 29.9456 -3.25 29.9694V38.75H-20.7206ZM17.375 31.875H4.25V30H5.5C5.66576 30 5.82473 29.9342 5.94194 29.8169C6.05915 29.6997 6.125 29.5408 6.125 29.375V24.375H10.5C10.6658 24.375 10.8247 24.3092 10.9419 24.1919C11.0592 24.0747 11.125 23.9158 11.125 23.75V8.75C11.1225 6.43012 10.1999 4.20596 8.55944 2.56556C6.91904 0.925151 4.69488 0.00248163 2.375 3.07722e-08H-0.75V1.25H2.375C4.25524 1.25234 6.06619 1.9599 7.45 3.23284C8.8338 4.50578 9.68977 6.2515 9.84875 8.125H-0.75V12.5C-0.75 12.6658 -0.684153 12.8247 -0.566942 12.9419C-0.449732 13.0592 -0.29076 13.125 -0.125 13.125H2.375V11.875H0.5V9.375H4.25V12.5H5.5V9.375H9.875V15.625H8.625V16.875H9.875V23.125H5.5C5.33424 23.125 5.17527 23.1908 5.05806 23.3081C4.94085 23.4253 4.875 23.5842 4.875 23.75V28.75H-0.75V30H3V31.875H-0.75V33.125H16.75V38.75H-0.75V40H17.375C17.5408 40 17.6997 39.9342 17.8169 39.8169C17.9342 39.6997 18 39.5408 18 39.375V32.5C18 32.3342 17.9342 32.1753 17.8169 32.0581C17.6997 31.9408 17.5408 31.875 17.375 31.875Z" fill="#DDDDDD"/>
<path d="M8 16.25C8 15.6319 7.81672 15.0277 7.47334 14.5138C7.12996 13.9999 6.64191 13.5994 6.07089 13.3629C5.49987 13.1264 4.87153 13.0645 4.26534 13.185C3.65915 13.3056 3.10233 13.6033 2.66529 14.0403C2.22825 14.4773 1.93062 15.0342 1.81005 15.6403C1.68947 16.2465 1.75135 16.8749 1.98788 17.4459C2.2244 18.0169 2.62494 18.505 3.13884 18.8483C3.65275 19.1917 4.25693 19.375 4.875 19.375C5.7035 19.374 6.49778 19.0444 7.08361 18.4586C7.66945 17.8728 7.99901 17.0785 8 16.25ZM4.07188 17.9375L4.875 17.1337L5.67812 17.9375C5.42849 18.0613 5.15363 18.1257 4.875 18.1257C4.59637 18.1257 4.32151 18.0613 4.07188 17.9375ZM3 16.25C3.00108 15.9716 3.06518 15.697 3.1875 15.4469L3.99125 16.25L3.1875 17.0531C3.06518 16.803 3.00108 16.5284 3 16.25ZM6.5625 15.4469C6.68626 15.6965 6.75065 15.9714 6.75065 16.25C6.75065 16.5286 6.68626 16.8035 6.5625 17.0531L5.75875 16.25L6.5625 15.4469ZM5.67812 14.5625L4.875 15.3663L4.07188 14.5625C4.32151 14.4387 4.59637 14.3743 4.875 14.3743C5.15363 14.3743 5.42849 14.4387 5.67812 14.5625ZM-0.125 24.375H0.5V25.625H-0.125V26.875H3C3.16576 26.875 3.32473 26.8092 3.44194 26.6919C3.55915 26.5747 3.625 26.4158 3.625 26.25V23.75C3.625 23.5842 3.55915 23.4253 3.44194 23.3081C3.32473 23.1908 3.16576 23.125 3 23.125H-0.125V24.375ZM2.375 25.625H1.75V24.375H2.375V25.625ZM6.75 6.875H8C7.99901 6.0465 7.66945 5.25222 7.08361 4.66639C6.49778 4.08055 5.7035 3.75099 4.875 3.75H-0.75V5H4.875C5.37228 5 5.84919 5.19754 6.20082 5.54917C6.55245 5.90081 6.75 6.37772 6.75 6.875ZM-0.75 5.625H0.5V6.875H-0.75V5.625Z" fill="#DDDDDD"/>
<path d="M1.75 5.625H3V6.875H1.75V5.625ZM4.25 5.625H5.5V6.875H4.25V5.625ZM0.5 1.875H1.75V3.125H0.5V1.875ZM3 1.875H4.25V3.125H3V1.875ZM11.75 37.5H13V35C13 34.8342 12.9342 34.6753 12.8169 34.5581C12.6997 34.4408 12.5408 34.375 12.375 34.375H-0.75V35.625H11.75V37.5ZM-0.75 16.875H0.5V20.625H-0.75V16.875ZM14.25 34.375H15.5V37.5H14.25V34.375Z" fill="#DDDDDD"/>
</svg>
